<svg xmlns="http://www.w3.org/2000/svg" xmlns:xlink="http://www.w3.org/1999/xlink" xmlns:inkscape="http://www.inkscape.org/namespaces/inkscape" version="1.1" width="133.7688" height="31.3913" viewBox="0 0 133.7688 31.3913">
<g inkscape:groupmode="layer" inkscape:label="&#x56FE;&#x5C42; 1">
<path transform="matrix(1,0,0,-1,1,30.3913)" d="M31.2786 .3064V29.05H35.4107V.3064ZM80.9481 29.3564H85.081 92.234C96.5395 29.3564 100.0304 25.8659 100.0304 21.5606V0H98.7919 95.8983 83.7816C79.4769 0 75.9864 3.2939 75.9864 7.5994 75.9864 10.9179 77.7008 13.4345 80.9807 14.7067L84.0302 15.819 95.8983 20.139V21.5606C95.8983 24.3428 93.4577 26.5972 90.8612 26.5972L85.081 26.6003H80.9481 78.8811V29.3564ZM80.1193 7.5994C80.1193 4.8183 82.4675 2.7598 85.1559 2.7598L95.8983 2.7561V17.2063L84.9728 13.2293 83.7471 12.7803C81.3271 11.9061 80.1193 9.9819 80.1193 7.5994ZM19.912 15.7652 9.6939 12.0464 9.5213 11.9852C9.0884 11.8261 8.6219 11.7388 8.1343 11.7388 5.9241 11.7388 4.1318 13.5303 4.1318 15.7414V29.05H0V15.7414C0 11.8137 3.1853 8.6284 7.1118 8.6284 7.9858 8.6284 8.822 8.7857 9.5947 9.0737L10.6373 9.4561 16.3911 11.5503 17.8461 12.0798 19.912 12.8316V8.1017C19.912 5.3198 16.9744 3.0648 14.8757 3.0648L2.8956 3.0626V.3064H16.2488C20.5543 .3064 24.0452 3.797 24.0452 8.1017V29.05H19.912ZM131.7688 21.5949C131.7688 25.8996 128.2771 29.3913 123.9724 29.3913H114.027C109.7212 29.3913 106.2315 25.8996 106.2315 21.5949H106.2306V7.8007H106.2315C106.2315 3.4954 109.722 .0037 114.027 .0037H123.9724C128.2779 .0037 131.7688 3.4954 131.7688 7.8007ZM110.3644 21.5949C110.3644 24.3763 113.332 26.6312 115.401 26.6312H122.5981C124.7958 26.6312 127.6347 24.3748 127.6347 21.5949V7.8007H127.6356C127.6356 5.0196 124.6674 2.7641 122.5981 2.7641H115.401C113.2036 2.7641 110.3655 5.0196 110.3655 7.8007H110.3644ZM39.8378 .3064V3.0611L50.2849 3.0648C52.331 3.0648 55.3224 5.3186 55.3224 8.1017V29.05H59.4564V8.1017C59.4564 3.797 55.9647 .3064 51.6591 .3064ZM65.6544 .3064V29.05H69.7864V.3064Z" fill="#ea5505"/>
</g>
</svg>
